<?xml version="1.0" encoding="utf-8"?>
<!-- Generator: Adobe Illustrator 16.0.0, SVG Export Plug-In . SVG Version: 6.00 Build 0)  -->
<!DOCTYPE svg PUBLIC "-//W3C//DTD SVG 1.1//EN" "http://www.w3.org/Graphics/SVG/1.1/DTD/svg11.dtd">
<svg version="1.1" xmlns="http://www.w3.org/2000/svg" xmlns:xlink="http://www.w3.org/1999/xlink" x="0px" y="0px" width="200px"
	 height="200px" viewBox="0 0 200 200" enable-background="new 0 0 200 200" xml:space="preserve">
<g id="Layer_1">
</g>
<g id="Layer_3">
</g>
<g id="Layer_2">
	<g>
		<defs>
			<path id="SVGID_1_" d="M200,187.055c0,7.152-5.871,12.945-13.114,12.945H13.114C5.871,200,0,194.207,0,187.055V12.943
				C0,5.793,5.871,0,13.114,0h173.772C194.129,0,200,5.793,200,12.943V187.055z"/>
		</defs>
		<clipPath id="SVGID_2_">
			<use xlink:href="#SVGID_1_"  overflow="visible"/>
		</clipPath>
		<path clip-path="url(#SVGID_2_)" fill="#FFFFFF" d="M109.747,115.248c-1.682,1.817-4.089,2.953-6.726,2.953h-0.364v-2.953H109.747
			z"/>
		<path clip-path="url(#SVGID_2_)" fill="#FFFFFF" d="M112.065,109.112v0.182l-9.317,1.864l-8.179-5.41
			c0.818-2.043,2.407-3.726,4.407-4.724l5.09,3.362l5.862-1.181C111.247,104.794,112.065,106.84,112.065,109.112z"/>
		<path clip-path="url(#SVGID_2_)" d="M198.453,104.612c-2.589,0-4.908,1.047-6.588,2.773l-10.181-3.681V61.851h-10.68v37.991
			l-13.178-4.771v-33.22h-10.68v33.946l-12.814,2.545c-0.182-0.182-0.364-0.317-0.546-0.5c-1.454-1.183-3.362-2.272-5.725-3.182
			l-8.181-3.227c-1.363-0.543-2.499-1.136-3.271-1.68c-0.819-0.546-1.409-1.183-1.864-1.91c-0.408-0.772-0.637-1.636-0.772-2.634
			c-0.091-1-0.138-2.228-0.138-3.728c0-1.227,0.091-2.454,0.32-3.59c0.182-1.136,0.546-2.135,1.089-3.044
			c0.501-0.863,1.227-1.591,2.181-2.135c0.955-0.546,2.137-0.819,3.637-0.819c2.68,0,4.635,0.863,5.771,2.636
			c1.18,1.817,1.726,3.908,1.726,6.362v2.363h10.68v-5.182c0-2.09-0.455-4.136-1.273-6.135c-0.817-1.999-2.043-3.77-3.59-5.361
			c-1.589-1.638-3.453-2.909-5.634-3.91c-2.228-0.954-4.636-1.454-7.271-1.454c-3.091,0-5.771,0.546-8.044,1.635
			c-2.316,1.092-4.227,2.501-5.725,4.318c-1.5,1.817-2.636,3.999-3.364,6.499c-0.772,2.499-1.18,5.135-1.18,7.953
			c0,4.636,0.816,8.543,2.363,11.632c1.544,3.091,4.635,5.592,9.224,7.5l2.454,0.999l-7.271,1.456l-5.862,1.181l-5.09-3.362
			l-8.587-5.636l-7.498-33.537h-8.862l-7.043,31.491l-14.816,5.545V81.073c0-6.044-1.635-10.771-4.817-14.132
			c-3.226-3.408-7.815-5.09-13.906-5.09H17.678v49.851l-12.679,4.726c-1.318-1.318-3.044-2.272-4.999-2.589v17.86
			c4.271-0.728,7.544-4.409,7.544-8.954v-0.408l10.134-3.819v17.77h14.814c6.361,0,11.226-1.682,14.587-5
			c3.408-3.271,5.09-8.452,5.09-15.404v-10.225l13.178-4.908l-7.953,35.537H68.03l3.136-15.997h14.541l3.135,15.997h10.68
			l-7.134-31.946l2.182,1.407l8.179,5.41l9.317-1.864l14.632-2.909c0.319,0.273,0.546,0.59,0.772,0.91
			c0.455,0.772,0.728,1.817,0.91,3.044c0.136,1.271,0.182,2.862,0.182,4.817c0,1.682-0.046,3.227-0.182,4.589
			c-0.182,1.409-0.499,2.592-1,3.5c-0.543,0.954-1.316,1.682-2.317,2.228c-1,0.5-2.407,0.772-4.227,0.772
			c-2.725,0-4.636-0.772-5.816-2.363c-1.136-1.544-1.727-3.317-1.727-5.272v-3.362h-10.635v3.999c0,2.499,0.455,4.817,1.409,6.999
			c0.91,2.137,2.181,3.999,3.818,5.589c1.589,1.544,3.497,2.818,5.725,3.681c2.228,0.908,4.635,1.363,7.225,1.363
			c3.408,0,6.317-0.544,8.68-1.636c2.363-1.136,4.271-2.636,5.681-4.544c1.454-1.955,2.454-4.227,3.091-6.907
			c0.635-2.681,0.954-5.59,0.954-8.725c0-2.727-0.137-5.135-0.455-7.271c-0.182-1.318-0.408-2.545-0.819-3.681l9.18-1.817v33.992
			h10.68v-34.447l13.178,4.772v29.674h10.68v-25.813l7.68,2.773v0.408c0,5.044,4.046,9.089,9.089,9.089c0.5,0,1.001-0.044,1.5-0.135
			v-17.86C199.454,104.659,198.953,104.612,198.453,104.612z M28.312,71.894h4.953c3.091,0,5.272,0.772,6.455,2.408
			c1.181,1.591,1.771,3.863,1.771,6.772v21.768l-13.178,4.908V71.894z M41.49,116.929c0,3.227-0.635,5.543-1.862,7.043
			c-1.273,1.5-3.408,2.272-6.364,2.272h-4.953v-11.678l13.178-4.908V116.929z"/>
		<g clip-path="url(#SVGID_2_)">
			<polygon fill="#FFFFFF" points="213.542,115.201 211.358,121.201 205.678,119.155 199.953,117.065 189.364,113.248 
				181.685,110.475 171.005,106.613 157.827,101.841 154.827,100.751 147.147,102.295 137.967,104.113 126.697,106.385 
				112.065,109.294 102.748,111.158 94.569,105.748 92.388,104.341 79.119,95.614 65.348,100.751 52.169,105.659 41.49,109.658 
				28.312,114.566 17.678,118.518 7.544,122.337 0,125.108 -8.681,128.381 -13.859,130.29 -16.087,124.29 -10.542,122.246 
				0,118.292 4.999,116.428 17.678,111.702 28.312,107.75 41.49,102.841 52.169,98.887 66.985,93.342 79.935,88.527 90.389,95.388 
				98.976,101.024 104.066,104.386 109.929,103.205 117.2,101.75 134.333,98.341 147.147,95.796 155.328,94.161 157.827,95.071 
				171.005,99.841 181.685,103.705 191.865,107.386 199.953,110.292 207.451,113.02 			"/>
		</g>
		<path clip-path="url(#SVGID_2_)" fill="#FFFFFF" d="M47.352,66.941c-3.226-3.408-7.815-5.09-13.906-5.09H17.678v74.437h14.814
			c6.361,0,11.226-1.682,14.587-5c3.408-3.271,5.09-8.452,5.09-15.404V81.073C52.169,75.029,50.534,70.303,47.352,66.941z
			 M41.49,116.929c0,3.227-0.635,5.543-1.862,7.043c-1.273,1.5-3.408,2.272-6.364,2.272h-4.953V71.894h4.953
			c3.091,0,5.272,0.772,6.455,2.408c1.181,1.591,1.771,3.863,1.771,6.772V116.929z"/>
		<g clip-path="url(#SVGID_2_)">
			<g>
				<path fill="#C8102E" d="M199.953,0.051v104.703c-0.499-0.091-1-0.137-1.5-0.137c-2.589,0-4.908,1.047-6.588,2.773l-10.181-3.681
					V61.855h-10.68v37.99l-13.178-4.771v-33.22h-10.68v33.945l-12.814,2.545c-0.182-0.182-0.364-0.317-0.546-0.499
					c-1.454-1.183-3.362-2.272-5.725-3.182l-8.181-3.227c-1.363-0.543-2.499-1.136-3.271-1.68c-0.819-0.546-1.409-1.183-1.864-1.91
					c-0.408-0.772-0.637-1.636-0.772-2.634c-0.091-1-0.138-2.228-0.138-3.728c0-1.227,0.091-2.454,0.32-3.59
					c0.182-1.136,0.546-2.135,1.089-3.044c0.501-0.863,1.227-1.591,2.181-2.135c0.955-0.546,2.137-0.818,3.637-0.818
					c2.68,0,4.635,0.863,5.771,2.636c1.18,1.817,1.726,3.908,1.726,6.362v2.363h10.68v-5.181c0-2.09-0.455-4.136-1.273-6.136
					c-0.817-1.999-2.043-3.77-3.59-5.361c-1.589-1.638-3.453-2.909-5.634-3.91c-2.228-0.954-4.636-1.454-7.271-1.454
					c-3.091,0-5.771,0.546-8.044,1.635c-2.316,1.092-4.227,2.501-5.725,4.318c-1.5,1.817-2.636,3.999-3.364,6.499
					c-0.772,2.499-1.18,5.135-1.18,7.953c0,4.635,0.816,8.543,2.363,11.631c1.544,3.091,4.635,5.592,9.224,7.5l2.454,0.999
					l-7.271,1.456l-5.862,1.18l-5.09-3.362l-8.587-5.636l-7.498-33.537h-8.862l-7.043,31.491l-14.816,5.545V81.078
					c0-6.044-1.635-10.771-4.817-14.133c-3.226-3.408-7.815-5.09-13.906-5.09H17.678v49.851l-12.679,4.727
					c-1.318-1.318-3.044-2.272-4.999-2.59V0.051H199.953z"/>
				<path fill="#C8102E" d="M41.49,81.078v21.768l-13.178,4.908V71.898h4.953c3.091,0,5.272,0.772,6.455,2.407
					C40.899,75.896,41.49,78.169,41.49,81.078z"/>
			</g>
			<line fill="none" stroke="#FFFFFF" stroke-miterlimit="10" x1="183.673" y1="-2.408" x2="202.004" y2="15.923"/>
			<line fill="none" stroke="#FFFFFF" stroke-miterlimit="10" x1="185.672" y1="-5.496" x2="204.003" y2="12.834"/>
			<line fill="none" stroke="#FFFFFF" stroke-miterlimit="10" x1="188.548" y1="-7.524" x2="206.879" y2="10.806"/>
			<line fill="none" stroke="#FFFFFF" stroke-miterlimit="10" x1="180.851" y1="-0.144" x2="203.047" y2="22.052"/>
			<line fill="none" stroke="#FFFFFF" stroke-miterlimit="10" x1="173.515" y1="-2.394" x2="203.584" y2="27.675"/>
			<line fill="none" stroke="#FFFFFF" stroke-miterlimit="10" x1="170.361" y1="-0.464" x2="200.073" y2="29.248"/>
			<line fill="none" stroke="#FFFFFF" stroke-miterlimit="10" x1="164.632" y1="-1.107" x2="200.774" y2="35.035"/>
			<line fill="none" stroke="#FFFFFF" stroke-miterlimit="10" x1="159.671" y1="-0.983" x2="200.113" y2="39.459"/>
			<line fill="none" stroke="#FFFFFF" stroke-miterlimit="10" x1="155.614" y1="0.046" x2="201.549" y2="45.981"/>
			<line fill="none" stroke="#FFFFFF" stroke-miterlimit="10" x1="163.916" y1="13.436" x2="182.246" y2="31.767"/>
			<line fill="none" stroke="#FFFFFF" stroke-miterlimit="10" x1="161.093" y1="15.699" x2="179.424" y2="34.03"/>
			<line fill="none" stroke="#FFFFFF" stroke-miterlimit="10" x1="158.271" y1="17.962" x2="176.602" y2="36.293"/>
			<line fill="none" stroke="#FFFFFF" stroke-miterlimit="10" x1="155.448" y1="20.226" x2="173.778" y2="38.556"/>
			<line fill="none" stroke="#FFFFFF" stroke-miterlimit="10" x1="152.625" y1="22.489" x2="170.956" y2="40.82"/>
			<line fill="none" stroke="#FFFFFF" stroke-miterlimit="10" x1="149.803" y1="24.752" x2="168.134" y2="43.083"/>
			<line fill="none" stroke="#FFFFFF" stroke-miterlimit="10" x1="146.98" y1="27.016" x2="165.312" y2="45.346"/>
			<line fill="none" stroke="#FFFFFF" stroke-miterlimit="10" x1="144.158" y1="29.279" x2="162.488" y2="47.609"/>
			<line fill="none" stroke="#FFFFFF" stroke-miterlimit="10" x1="141.335" y1="31.542" x2="159.666" y2="49.873"/>
			<line fill="none" stroke="#FFFFFF" stroke-miterlimit="10" x1="138.513" y1="33.806" x2="156.844" y2="52.136"/>
			<line fill="none" stroke="#FFFFFF" stroke-miterlimit="10" x1="135.69" y1="36.069" x2="154.021" y2="54.399"/>
			<line fill="none" stroke="#FFFFFF" stroke-miterlimit="10" x1="132.868" y1="38.332" x2="151.199" y2="56.663"/>
			<line fill="none" stroke="#FFFFFF" stroke-miterlimit="10" x1="130.045" y1="40.596" x2="148.376" y2="58.926"/>
			<line fill="none" stroke="#FFFFFF" stroke-miterlimit="10" x1="127.223" y1="42.859" x2="145.554" y2="61.189"/>
			<line fill="none" stroke="#FFFFFF" stroke-miterlimit="10" x1="124.4" y1="45.122" x2="142.731" y2="63.453"/>
			<line fill="none" stroke="#FFFFFF" stroke-miterlimit="10" x1="121.578" y1="47.386" x2="139.909" y2="65.716"/>
			<line fill="none" stroke="#FFFFFF" stroke-miterlimit="10" x1="118.756" y1="49.649" x2="137.086" y2="67.979"/>
			<line fill="none" stroke="#FFFFFF" stroke-miterlimit="10" x1="115.933" y1="51.912" x2="134.264" y2="70.243"/>
			<line fill="none" stroke="#FFFFFF" stroke-miterlimit="10" x1="113.11" y1="54.175" x2="131.441" y2="72.506"/>
			<line fill="none" stroke="#FFFFFF" stroke-miterlimit="10" x1="110.288" y1="56.439" x2="128.619" y2="74.77"/>
			<line fill="none" stroke="#FFFFFF" stroke-miterlimit="10" x1="107.466" y1="58.702" x2="125.796" y2="77.033"/>
			<line fill="none" stroke="#FFFFFF" stroke-miterlimit="10" x1="104.643" y1="60.965" x2="122.974" y2="79.296"/>
			<line fill="none" stroke="#FFFFFF" stroke-miterlimit="10" x1="101.82" y1="63.229" x2="120.151" y2="81.56"/>
			<line fill="none" stroke="#FFFFFF" stroke-miterlimit="10" x1="98.998" y1="65.492" x2="117.329" y2="83.823"/>
			<line fill="none" stroke="#FFFFFF" stroke-miterlimit="10" x1="96.176" y1="67.755" x2="114.506" y2="86.086"/>
			<line fill="none" stroke="#FFFFFF" stroke-miterlimit="10" x1="93.353" y1="70.019" x2="111.684" y2="88.35"/>
			<line fill="none" stroke="#FFFFFF" stroke-miterlimit="10" x1="90.531" y1="72.282" x2="108.861" y2="90.613"/>
			<line fill="none" stroke="#FFFFFF" stroke-miterlimit="10" x1="87.708" y1="74.545" x2="106.039" y2="92.876"/>
			<line fill="none" stroke="#FFFFFF" stroke-miterlimit="10" x1="3.994" y1="-4.085" x2="103.216" y2="95.14"/>
			<line fill="none" stroke="#FFFFFF" stroke-miterlimit="10" x1="0.941" y1="-2.048" x2="100.394" y2="97.403"/>
			<line fill="none" stroke="#FFFFFF" stroke-miterlimit="10" x1="-16.261" y1="-14.168" x2="97.571" y2="99.666"/>
			<line fill="none" stroke="#FFFFFF" stroke-miterlimit="10" x1="-8.965" y1="-1.786" x2="94.749" y2="101.929"/>
			<line fill="none" stroke="#FFFFFF" stroke-miterlimit="10" x1="-12.071" y1="0.193" x2="91.926" y2="104.193"/>
			<line fill="none" stroke="#FFFFFF" stroke-miterlimit="10" x1="-14.079" y1="3.273" x2="89.104" y2="106.456"/>
			<line fill="none" stroke="#FFFFFF" stroke-miterlimit="10" x1="-12.267" y1="10.169" x2="86.281" y2="108.719"/>
			<line fill="none" stroke="#FFFFFF" stroke-miterlimit="10" x1="-6.009" y1="21.515" x2="83.459" y2="110.982"/>
			<line fill="none" stroke="#FFFFFF" stroke-miterlimit="10" x1="-11.044" y1="21.515" x2="78.424" y2="110.982"/>
			<line fill="none" stroke="#FFFFFF" stroke-miterlimit="10" x1="-3.586" y1="34.489" x2="48.695" y2="86.77"/>
			<line fill="none" stroke="#FFFFFF" stroke-miterlimit="10" x1="45.617" y1="83.692" x2="61.349" y2="99.424"/>
			<line fill="none" stroke="#FFFFFF" stroke-miterlimit="10" x1="-4.191" y1="39.399" x2="44.758" y2="88.35"/>
			<line fill="none" stroke="#FFFFFF" stroke-miterlimit="10" x1="-5.77" y1="43.338" x2="44.792" y2="93.899"/>
			<line fill="none" stroke="#FFFFFF" stroke-miterlimit="10" x1="-5.177" y1="49.447" x2="41.423" y2="96.047"/>
			<line fill="none" stroke="#FFFFFF" stroke-miterlimit="10" x1="-7.118" y1="53.021" x2="43.853" y2="103.993"/>
			<line fill="none" stroke="#FFFFFF" stroke-miterlimit="10" x1="-9.586" y1="56.07" x2="42.743" y2="108.4"/>
			<line fill="none" stroke="#FFFFFF" stroke-miterlimit="10" x1="-8.417" y1="62.756" x2="39.253" y2="110.426"/>
			<line fill="none" stroke="#FFFFFF" stroke-miterlimit="10" x1="-6.737" y1="69.952" x2="38.954" y2="115.643"/>
			<line fill="none" stroke="#FFFFFF" stroke-miterlimit="10" x1="-5.734" y1="76.472" x2="27.883" y2="110.088"/>
			<line fill="none" stroke="#FFFFFF" stroke-miterlimit="10" x1="-14.046" y1="73.676" x2="25.265" y2="112.986"/>
			<line fill="none" stroke="#FFFFFF" stroke-miterlimit="10" x1="-16.802" y1="76.432" x2="22.509" y2="115.742"/>
			<line fill="none" stroke="#FFFFFF" stroke-miterlimit="10" x1="-19.558" y1="79.188" x2="19.753" y2="118.498"/>
			<line fill="none" stroke="#FFFFFF" stroke-miterlimit="10" x1="-22.313" y1="81.943" x2="13.695" y2="117.952"/>
			<line fill="none" stroke="#FFFFFF" stroke-miterlimit="10" x1="-30" y1="79.769" x2="9.311" y2="119.08"/>
			<path fill="none" stroke="#FFFFFF" stroke-miterlimit="10" d="M27.009,156.249"/>
			<path fill="none" stroke="#FFFFFF" stroke-miterlimit="10" d="M8.678,137.918"/>
			<line fill="none" stroke="#FFFFFF" stroke-miterlimit="10" x1="43.05" y1="86.641" x2="58.017" y2="101.607"/>
		</g>
		<g clip-path="url(#SVGID_2_)">
			<path fill="#54585A" d="M199.953,122.61V200H0v-68.301c4.271-0.728,7.544-4.409,7.544-8.954v-0.408l10.134-3.819v17.77h14.814
				c6.361,0,11.226-1.682,14.587-5c3.408-3.271,5.09-8.452,5.09-15.404v-10.225l13.178-4.908l-7.953,35.537H68.03l3.136-15.997
				h14.541l3.135,15.997h10.68l-7.134-31.946l2.182,1.407l8.179,5.41l9.317-1.864l14.632-2.909c0.319,0.273,0.546,0.59,0.772,0.91
				c0.455,0.772,0.728,1.817,0.91,3.044c0.136,1.271,0.182,2.862,0.182,4.817c0,1.682-0.046,3.227-0.182,4.589
				c-0.182,1.409-0.499,2.592-1,3.5c-0.543,0.954-1.316,1.682-2.317,2.228c-1,0.5-2.407,0.772-4.227,0.772
				c-2.725,0-4.636-0.772-5.816-2.363c-1.136-1.544-1.727-3.317-1.727-5.272v-3.362h-10.635v3.999c0,2.499,0.455,4.817,1.409,6.999
				c0.91,2.137,2.181,3.999,3.818,5.589c1.589,1.544,3.497,2.818,5.725,3.681c2.228,0.908,4.635,1.363,7.225,1.363
				c3.408,0,6.317-0.544,8.68-1.636c2.363-1.136,4.271-2.636,5.681-4.544c1.454-1.955,2.454-4.227,3.091-6.907
				c0.635-2.681,0.954-5.59,0.954-8.725c0-2.727-0.137-5.135-0.455-7.271c-0.182-1.318-0.408-2.545-0.819-3.681l9.18-1.817v33.992
				h10.68v-34.447l13.178,4.772v29.674h10.68v-25.813l7.68,2.773v0.408c0,5.044,4.046,9.089,9.089,9.089
				C198.953,122.745,199.454,122.701,199.953,122.61z"/>
			<path fill="#54585A" d="M41.49,109.658v7.271c0,3.227-0.635,5.543-1.862,7.043c-1.273,1.5-3.408,2.272-6.364,2.272h-4.953
				v-11.678L41.49,109.658z"/>
		</g>
		<path clip-path="url(#SVGID_2_)" fill="#FFFFFF" d="M92.388,104.341l-1.999-8.954l-7.498-33.537h-8.862l-7.043,31.491
			l-1.638,7.409l-7.953,35.537H68.03l3.136-15.997h14.541l3.135,15.997h10.68L92.388,104.341z"/>
		<path clip-path="url(#SVGID_2_)" fill="#FFFFFF" d="M139.241,83.255v-5.182c0-2.09-0.455-4.136-1.273-6.135
			c-0.817-1.999-2.043-3.77-3.59-5.361c-1.589-1.638-3.453-2.909-5.634-3.91c-2.228-0.954-4.636-1.454-7.271-1.454
			c-3.091,0-5.771,0.546-8.044,1.635c-2.316,1.092-4.227,2.501-5.725,4.318c-1.5,1.817-2.636,3.999-3.364,6.499
			c-0.772,2.499-1.18,5.135-1.18,7.953c0,4.636,0.816,8.543,2.363,11.632c1.544,3.091,4.635,5.592,9.224,7.5l2.454,0.999
			l5.181,2.137c1.362,0.545,2.408,1.045,3.226,1.544c0.409,0.273,0.817,0.59,1.09,0.954c0.319,0.273,0.546,0.59,0.772,0.91
			c0.455,0.772,0.728,1.817,0.91,3.044c0.136,1.271,0.182,2.862,0.182,4.817c0,1.682-0.046,3.227-0.182,4.589
			c-0.182,1.409-0.499,2.592-1,3.5c-0.543,0.954-1.316,1.682-2.317,2.228c-1,0.5-2.407,0.772-4.227,0.772
			c-2.725,0-4.636-0.772-5.816-2.363c-1.136-1.544-1.727-3.317-1.727-5.272v-3.362h-10.635v3.999c0,2.499,0.455,4.817,1.409,6.999
			c0.91,2.137,2.181,3.999,3.818,5.589c1.589,1.544,3.497,2.818,5.725,3.681c2.228,0.908,4.635,1.363,7.225,1.363
			c3.408,0,6.317-0.544,8.68-1.636c2.363-1.136,4.271-2.636,5.681-4.544c1.454-1.955,2.454-4.227,3.091-6.907
			c0.635-2.681,0.954-5.59,0.954-8.725c0-2.727-0.137-5.135-0.455-7.271c-0.182-1.318-0.408-2.545-0.819-3.681
			c-0.182-0.681-0.455-1.362-0.772-1.953c-0.728-1.409-1.682-2.727-2.862-3.819c-0.182-0.182-0.364-0.317-0.546-0.5
			c-1.454-1.183-3.362-2.272-5.725-3.182l-8.181-3.227c-1.363-0.543-2.499-1.136-3.271-1.68c-0.819-0.546-1.409-1.183-1.864-1.91
			c-0.408-0.772-0.637-1.636-0.772-2.634c-0.091-1-0.138-2.228-0.138-3.728c0-1.227,0.091-2.454,0.32-3.59
			c0.182-1.136,0.546-2.135,1.089-3.044c0.501-0.863,1.227-1.591,2.181-2.135c0.955-0.546,2.137-0.819,3.637-0.819
			c2.68,0,4.635,0.863,5.771,2.636c1.18,1.817,1.726,3.908,1.726,6.362v2.363H139.241z"/>
		<rect x="147.147" y="61.851" clip-path="url(#SVGID_2_)" fill="#FFFFFF" width="10.68" height="74.437"/>
		<rect x="171.005" y="61.851" clip-path="url(#SVGID_2_)" fill="#FFFFFF" width="10.68" height="74.437"/>
		<path clip-path="url(#SVGID_2_)" fill="#FFFFFF" d="M7.544,122.337v0.408c0,4.544-3.273,8.226-7.544,8.954
			c-0.499,0.091-1.001,0.135-1.5,0.135c-2.909,0-5.499-1.362-7.181-3.453c-1.18-1.546-1.908-3.499-1.908-5.636
			c0-0.182,0-0.364,0.047-0.499c0.226-4.773,4.18-8.545,9.042-8.545c0.499,0,1.001,0.047,1.5,0.138
			c1.955,0.317,3.681,1.271,4.999,2.589C6.499,117.975,7.453,120.018,7.544,122.337z"/>
		<g clip-path="url(#SVGID_2_)">
			<path fill="#FFFFFF" d="M207.498,113.656c0,2.09-0.684,3.999-1.82,5.499c-1.362,1.817-3.408,3.091-5.725,3.455
				c-0.499,0.091-1,0.135-1.5,0.135c-5.043,0-9.089-4.045-9.089-9.089v-0.408c0.091-2.272,1.046-4.318,2.501-5.862
				c1.68-1.727,3.999-2.773,6.588-2.773c0.5,0,1.001,0.046,1.5,0.137c4.09,0.681,7.225,4.09,7.498,8.27
				C207.498,113.202,207.498,113.43,207.498,113.656z"/>
		</g>
	</g>
</g>
</svg>
