<?xml version="1.0" encoding="utf-8"?>
<!-- Generator: Adobe Illustrator 16.0.0, SVG Export Plug-In . SVG Version: 6.00 Build 0)  -->
<!DOCTYPE svg PUBLIC "-//W3C//DTD SVG 1.1//EN" "http://www.w3.org/Graphics/SVG/1.1/DTD/svg11.dtd">
<svg version="1.1" id="Layer_1" xmlns="http://www.w3.org/2000/svg" xmlns:xlink="http://www.w3.org/1999/xlink" x="0px" y="0px"
	 width="426px" height="426px" viewBox="0 0 426 426" enable-background="new 0 0 426 426" xml:space="preserve">
<rect x="-153.667" y="512.303" stroke="#000000" stroke-miterlimit="10" width="1.042" height="0"/>
<g>
	<defs>
		<rect id="SVGID_1_" width="426" height="426"/>
	</defs>
	<clipPath id="SVGID_2_">
		<use xlink:href="#SVGID_1_"  overflow="visible"/>
	</clipPath>
	<rect clip-path="url(#SVGID_2_)" fill="#EC2227" width="426" height="426"/>
	<rect x="0.897" y="78" display="none" clip-path="url(#SVGID_2_)" fill="#BE1E2D" width="153.103" height="84.158"/>
	<g clip-path="url(#SVGID_2_)">
		<text transform="matrix(1 0 0 1 3.1367 279.3076)" fill="#010101" font-family="'Helvetica-Light'" font-size="346">D</text>
	</g>
	<rect x="382.646" y="357.133" display="none" clip-path="url(#SVGID_2_)" fill="#BE1E2D" width="43.354" height="68.867"/>
	
		<rect x="189.784" y="251.397" transform="matrix(0.7071 -0.7071 0.7071 0.7071 -123.485 274.8724)" display="none" clip-path="url(#SVGID_2_)" fill="#BE1E2D" width="160.549" height="70.199"/>
	<g clip-path="url(#SVGID_2_)">
		<text transform="matrix(1 0 0 1 129.7168 438.8008)" fill="#010101" font-family="'HelveticaNeue-UltraLight'" font-size="415">S</text>
	</g>
	<g clip-path="url(#SVGID_2_)">
		<path fill="#010101" d="M326.087,16.669h17.939v40.757h46.641V16.669h17.939v278.334h-17.939V72.926h-46.641v46.211h-17.939
			V16.669z"/>
	</g>
	<g clip-path="url(#SVGID_2_)">
		<text transform="matrix(1 0 0 1 52.9995 380.9688)" fill="#010101" font-family="'Bodoni-Bold'" font-size="138">a</text>
	</g>
	<circle clip-path="url(#SVGID_2_)" fill="#FFFFFF" cx="88.295" cy="300.984" r="11.648"/>
	<circle clip-path="url(#SVGID_2_)" fill="#FFFFFF" cx="266.146" cy="46.836" r="22.5"/>
	
		<line clip-path="url(#SVGID_2_)" fill="none" stroke="#010101" stroke-width="8.0375" stroke-miterlimit="10" x1="227" y1="400.333" x2="0" y2="400.333"/>
	<path clip-path="url(#SVGID_2_)" d="M400.666,340.332"/>
	<path clip-path="url(#SVGID_2_)" d="M371.347,305.037"/>
	<rect clip-path="url(#SVGID_2_)" fill="none" width="426" height="426"/>
</g>
</svg>
