<?xml version="1.0" encoding="utf-8"?>
<!-- Generator: Adobe Illustrator 17.1.0, SVG Export Plug-In . SVG Version: 6.00 Build 0)  -->
<!DOCTYPE svg PUBLIC "-//W3C//DTD SVG 1.1//EN" "http://www.w3.org/Graphics/SVG/1.1/DTD/svg11.dtd">
<svg version="1.1" id="Layer_1" xmlns="http://www.w3.org/2000/svg" xmlns:xlink="http://www.w3.org/1999/xlink" x="0px" y="0px"
	 viewBox="0 0 103.7 81.7" enable-background="new 0 0 103.7 81.7" xml:space="preserve">
<g id="XMLID_10_">
	<g>
		<path fill="#FFFFFF" d="M71.3,30.2c2.8,5.4,3.4,11.5,2.1,17l4.7,9.2l-9.3,0.3c-2.1,2.7-4.9,5.1-8.1,6.7
			c-12.1,6.2-27,1.5-33.2-10.6c-6.3-12.1-1.5-27,10.6-33.2C50.2,13.4,65,18.1,71.3,30.2z M66,33c-4.7-9.2-16-12.8-25.2-8
			s-12.8,16-8,25.2c4.7,9.2,16.5,13.6,25.6,8.9S70.7,42.2,66,33z"/>
		<path fill="#FFFFFF" d="M40.8,24.9c9.2-4.7,20.5-1.1,25.2,8c4.7,9.2,1.6,21.3-7.6,26s-20.9,0.3-25.6-8.9
			C28,41,31.6,29.7,40.8,24.9z"/>
	</g>
	<g>
	</g>
</g>
</svg>
