<?xml version="1.0" encoding="utf-8"?>
<!-- Generator: Adobe Illustrator 16.0.0, SVG Export Plug-In . SVG Version: 6.00 Build 0)  -->
<!DOCTYPE svg PUBLIC "-//W3C//DTD SVG 1.1//EN" "http://www.w3.org/Graphics/SVG/1.1/DTD/svg11.dtd">
<svg version="1.1" id="Layer_1" xmlns="http://www.w3.org/2000/svg" xmlns:xlink="http://www.w3.org/1999/xlink" x="0px" y="0px"
	 width="156px" height="62.472px" viewBox="0 0 156 62.472" enable-background="new 0 0 156 62.472" xml:space="preserve">
<g>
	<path fill="#FFFFFF" d="M178.079,117.791c0,7.149-5.872,12.945-13.114,12.945H-8.807c-7.242,0-13.114-5.795-13.114-12.945v-174.11
		c0-7.149,5.872-12.945,13.114-12.945h173.771c7.242,0,13.114,5.795,13.114,12.945V117.791z"/>
</g>
<g>
	<polygon fill="#E31837" points="1.635,38.564 1.635,16.196 5.202,16.196 5.202,25.627 14.846,25.627 14.846,16.196 18.413,16.196 
		18.413,38.564 14.846,38.564 14.846,28.772 5.202,28.772 5.202,38.564 1.635,38.564 	"/>
	<g>
		<defs>
			<rect id="SVGID_1_" y="0" width="156" height="62.472"/>
		</defs>
		<clipPath id="SVGID_2_">
			<use xlink:href="#SVGID_1_"  overflow="visible"/>
		</clipPath>
		<polygon clip-path="url(#SVGID_2_)" fill="none" stroke="#E31837" stroke-width="1.5" points="1.635,38.564 1.635,16.196 
			5.202,16.196 5.202,25.627 14.846,25.627 14.846,16.196 18.413,16.196 18.413,38.564 14.846,38.564 14.846,28.772 5.202,28.772 
			5.202,38.564 1.635,38.564 		"/>
	</g>
	<path fill="#E31837" d="M27.356,27.379c0,4.658,3.445,8.465,8.223,8.465c4.866,0,8.101-4.081,8.101-8.434
		c0-4.385-3.234-8.494-8.132-8.494c-4.866,0-8.191,3.93-8.191,8.435V27.379L27.356,27.379z M23.818,27.501
		c0-7.044,5.413-11.73,11.698-11.73c6.684,0,11.73,5.171,11.73,11.608c0,6.44-5.047,11.61-11.759,11.61
		c-6.741,0-11.67-5.291-11.67-11.459V27.501L23.818,27.501z"/>
	<path fill="none" stroke="#E31837" stroke-width="1.5" d="M27.356,27.379c0,4.658,3.445,8.465,8.223,8.465
		c4.866,0,8.101-4.081,8.101-8.434c0-4.385-3.234-8.494-8.132-8.494c-4.866,0-8.191,3.93-8.191,8.435V27.379L27.356,27.379z
		 M23.818,27.501c0-7.044,5.413-11.73,11.698-11.73c6.684,0,11.73,5.171,11.73,11.608c0,6.44-5.047,11.61-11.759,11.61
		c-6.741,0-11.67-5.291-11.67-11.459V27.501L23.818,27.501z"/>
	<path fill="#E31837" d="M56.128,16.196V30.16c0,1.39,0,2.601,0.817,3.9c0.664,1.06,1.903,1.784,3.445,1.784
		s2.781-0.696,3.387-1.722c0.847-1.271,0.847-2.51,0.847-3.962V16.196h3.537V30.16c0.031,2.965-0.454,5.231-2.418,6.863
		c-1.331,1.208-3.116,1.966-5.322,1.966c-1.602,0-3.899-0.453-5.41-1.935c-2.208-1.965-2.479-4.171-2.448-6.894V16.196H56.128
		L56.128,16.196z"/>
	<path fill="none" stroke="#E31837" stroke-width="1.5" d="M56.128,16.196V30.16c0,1.39,0,2.601,0.817,3.9
		c0.664,1.06,1.903,1.784,3.445,1.784s2.781-0.696,3.387-1.722c0.847-1.271,0.847-2.51,0.847-3.962V16.196h3.537V30.16
		c0.031,2.965-0.454,5.231-2.418,6.863c-1.331,1.208-3.116,1.966-5.322,1.966c-1.602,0-3.899-0.453-5.41-1.935
		c-2.208-1.965-2.479-4.171-2.448-6.894V16.196H56.128L56.128,16.196z"/>
	<path fill="#E31837" d="M76.985,31.945c0.241,3.357,2.599,4.021,3.777,4.021c1.994,0,3.719-1.573,3.719-3.567
		c0-2.479-2.116-3.053-4.989-4.113c-1.752-0.573-5.652-1.872-5.652-6.074c-0.031-4.171,3.537-6.44,7.043-6.44
		c2.873,0,6.468,1.573,6.742,6.166h-3.508c-0.24-1.208-0.784-3.142-3.354-3.142c-1.813,0-3.386,1.239-3.386,3.142
		c0,2.177,1.662,2.722,5.26,4.052c2.78,1.18,5.38,2.601,5.38,6.228c0,3.627-2.447,6.772-7.224,6.772
		c-4.442,0-7.286-2.721-7.347-7.044H76.985L76.985,31.945z"/>
	<path fill="none" stroke="#E31837" stroke-width="1.5" d="M76.985,31.945c0.241,3.357,2.599,4.021,3.777,4.021
		c1.994,0,3.719-1.573,3.719-3.567c0-2.479-2.116-3.053-4.989-4.113c-1.752-0.573-5.652-1.872-5.652-6.074
		c-0.031-4.171,3.537-6.44,7.043-6.44c2.873,0,6.468,1.573,6.742,6.166h-3.508c-0.24-1.208-0.784-3.142-3.354-3.142
		c-1.813,0-3.386,1.239-3.386,3.142c0,2.177,1.662,2.722,5.26,4.052c2.78,1.18,5.38,2.601,5.38,6.228
		c0,3.627-2.447,6.772-7.224,6.772c-4.442,0-7.286-2.721-7.347-7.044H76.985L76.985,31.945z"/>
	<polygon fill="#E31837" points="96.507,19.338 91.37,19.338 91.37,16.196 105.214,16.196 105.214,19.338 100.075,19.338 
		100.075,38.564 96.507,38.564 96.507,19.338 	"/>
	<polygon fill="none" stroke="#E31837" stroke-width="1.5" points="96.507,19.338 91.37,19.338 91.37,16.196 105.214,16.196 
		105.214,19.338 100.075,19.338 100.075,38.564 96.507,38.564 96.507,19.338 	"/>
	<path fill="#E31837" d="M111.136,27.379c0,4.658,3.446,8.465,8.223,8.465c4.868,0,8.102-4.081,8.102-8.434
		c0-4.385-3.233-8.494-8.133-8.494c-4.865,0-8.191,3.93-8.191,8.435V27.379L111.136,27.379z M107.599,27.501
		c0-7.044,5.411-11.73,11.698-11.73c6.681,0,11.73,5.171,11.73,11.608c0,6.44-5.05,11.61-11.762,11.61
		c-6.739,0-11.667-5.291-11.667-11.459V27.501L107.599,27.501z"/>
	<path fill="none" stroke="#E31837" stroke-width="1.5" d="M111.136,27.379c0,4.658,3.446,8.465,8.223,8.465
		c4.868,0,8.102-4.081,8.102-8.434c0-4.385-3.233-8.494-8.133-8.494c-4.865,0-8.191,3.93-8.191,8.435V27.379L111.136,27.379z
		 M107.599,27.501c0-7.044,5.411-11.73,11.698-11.73c6.681,0,11.73,5.171,11.73,11.608c0,6.44-5.05,11.61-11.762,11.61
		c-6.739,0-11.667-5.291-11.667-11.459V27.501L107.599,27.501z"/>
	<polygon fill="#E31837" points="151.427,33.214 151.366,16.196 154.812,16.196 154.812,38.564 151.548,38.564 139.848,21.515 
		139.908,38.564 136.462,38.564 136.462,16.196 139.817,16.196 151.427,33.214 	"/>
	<g>
		<defs>
			<rect id="SVGID_3_" y="0" width="156" height="62.472"/>
		</defs>
		<clipPath id="SVGID_4_">
			<use xlink:href="#SVGID_3_"  overflow="visible"/>
		</clipPath>
		<polygon clip-path="url(#SVGID_4_)" fill="none" stroke="#E31837" stroke-width="1.5" points="151.427,33.214 151.366,16.196 
			154.812,16.196 154.812,38.564 151.548,38.564 139.848,21.515 139.908,38.564 136.462,38.564 136.462,16.196 139.817,16.196 
			151.427,33.214 		"/>
	</g>
	<path fill="#808285" d="M3.879,0.181v5.91c0,0.589,0,1.1,0.345,1.65c0.283,0.447,0.806,0.755,1.459,0.755
		c0.652,0,1.177-0.294,1.433-0.728c0.358-0.539,0.358-1.064,0.358-1.677v-5.91h1.497v5.91c0.014,1.252-0.192,2.213-1.024,2.905
		c-0.562,0.511-1.317,0.83-2.25,0.83c-0.679,0-1.65-0.191-2.291-0.818C2.472,8.176,2.357,7.241,2.369,6.091v-5.91H3.879L3.879,0.181
		z"/>
	<polygon fill="#808285" points="23.649,7.382 23.625,0.181 25.083,0.181 25.083,9.648 23.702,9.648 18.75,2.432 18.775,9.648 
		17.319,9.648 17.319,0.181 18.736,0.181 23.649,7.382 	"/>
	<polygon fill="#808285" points="33.468,0.181 34.979,0.181 34.979,9.648 33.468,9.648 33.468,0.181 	"/>
	<polygon fill="#808285" points="42.485,0.181 44.046,0.181 46.782,7.804 49.534,0.181 51.095,0.181 47.523,9.648 46.028,9.648 
		42.485,0.181 	"/>
	<polygon fill="#808285" points="58.61,0.181 63.905,0.181 63.905,1.51 60.119,1.51 60.119,4.197 63.857,4.197 63.857,5.515 
		60.119,5.515 60.119,8.315 63.905,8.315 63.905,9.648 58.61,9.648 58.61,0.181 	"/>
	<path fill="#808285" d="M71.961,0.181h2.675c1.482,0,2.25,0.205,2.749,0.55c0.782,0.511,1.256,1.497,1.256,2.558
		c0,0.666-0.191,1.305-0.539,1.805c-0.485,0.678-1.1,0.909-1.829,1.037L78.5,9.648h-1.6l-2.598-4.273h0.333
		c0.652,0,1.445-0.026,1.893-0.409c0.436-0.385,0.652-0.935,0.652-1.549c0-0.639-0.307-1.267-0.807-1.6
		c-0.407-0.256-0.933-0.306-1.61-0.306h-1.292v8.138h-1.511V0.181L71.961,0.181z"/>
	<path fill="#808285" d="M87.421,6.846c0.104,1.419,1.103,1.7,1.6,1.7c0.844,0,1.575-0.665,1.575-1.509
		c0-1.049-0.897-1.291-2.111-1.74c-0.742-0.243-2.394-0.792-2.394-2.57C86.08,0.96,87.59,0,89.073,0
		c1.214,0,2.738,0.667,2.852,2.611h-1.483c-0.102-0.511-0.333-1.33-1.421-1.33c-0.767,0-1.431,0.524-1.431,1.33
		c0,0.922,0.702,1.153,2.225,1.716c1.176,0.498,2.277,1.1,2.277,2.634c0,1.536-1.035,2.866-3.058,2.866
		c-1.881,0-3.083-1.151-3.11-2.979H87.421L87.421,6.846z"/>
	<polygon fill="#808285" points="100.044,0.181 101.553,0.181 101.553,9.648 100.044,9.648 100.044,0.181 	"/>
	<polygon fill="#808285" points="111.208,1.51 109.032,1.51 109.032,0.181 114.892,0.181 114.892,1.51 112.717,1.51 112.717,9.648 
		111.208,9.648 111.208,1.51 	"/>
	<polygon fill="#808285" points="124.967,6.282 122,0.181 123.638,0.181 125.722,4.863 127.809,0.181 129.444,0.181 126.478,6.282 
		126.478,9.648 124.967,9.648 124.967,6.282 	"/>
	<path fill="#808285" d="M143.768,5.2c0,1.097,0.835,1.921,1.89,1.921c1.058,0,1.891-0.824,1.891-1.931
		c0-1.105-0.833-1.929-1.891-1.929c-1.055,0-1.89,0.824-1.89,1.929V5.2L143.768,5.2z M142.712,5.181
		c0-1.474,1.086-2.915,2.945-2.915s2.946,1.441,2.946,2.924s-1.087,2.917-2.946,2.917s-2.945-1.433-2.945-2.917V5.181L142.712,5.181
		z"/>
	<path fill="#808285" d="M152.172,3.25h-0.752V2.427h0.752V2.051c0-1.666,1.29-1.747,2.072-1.757v0.833
		c-0.356,0.01-1.016,0.01-1.016,0.975v0.325h1.016V3.25h-1.016v4.705h-1.057V3.25L152.172,3.25z"/>
	<polygon fill="#808285" points="18.694,62.307 18.694,54.987 17.111,54.987 17.111,53.844 21.503,53.844 21.503,54.987 
		19.921,54.987 19.921,62.307 18.694,62.307 	"/>
	<polygon fill="#808285" points="22.442,62.307 22.442,53.844 23.668,53.844 23.668,57.438 27.119,57.438 27.119,53.844 
		28.346,53.844 28.346,62.307 27.119,62.307 27.119,58.641 23.668,58.641 23.668,62.307 22.442,62.307 	"/>
	<polygon fill="#808285" points="29.938,62.307 29.938,53.844 34.329,53.844 34.329,54.975 31.163,54.975 31.163,57.498 
		34.329,57.498 34.329,58.605 31.163,58.605 31.163,61.14 34.329,61.14 34.329,62.307 29.938,62.307 	"/>
	<g>
		<defs>
			<rect id="SVGID_5_" y="0" width="156" height="62.472"/>
		</defs>
		<clipPath id="SVGID_6_">
			<use xlink:href="#SVGID_5_"  overflow="visible"/>
		</clipPath>
		<polygon clip-path="url(#SVGID_6_)" fill="#808285" points="39.468,62.307 39.468,53.844 40.693,53.844 40.693,57.438 
			44.146,57.438 44.146,53.844 45.371,53.844 45.371,62.307 44.146,62.307 44.146,58.641 40.693,58.641 40.693,62.307 
			39.468,62.307 		"/>
		<path clip-path="url(#SVGID_6_)" fill="#808285" d="M48.714,60.307c0.583,0.607,1.381,0.952,2.166,0.952
			c1.749,0,3.082-1.405,3.082-3.25c0-0.773-0.285-1.5-0.832-2.095c-0.631-0.678-1.346-1.012-2.25-1.012
			c-0.797,0-1.535,0.31-2.095,0.881c-0.595,0.607-0.929,1.44-0.929,2.25C47.856,58.926,48.166,59.736,48.714,60.307L48.714,60.307z
			 M47.904,54.903c0.81-0.797,1.821-1.226,2.988-1.226c1.189,0,2.201,0.417,3.034,1.238c0.857,0.845,1.298,1.904,1.298,3.106
			c0,1.214-0.381,2.226-1.119,3.023c-0.869,0.94-1.952,1.428-3.226,1.428c-1.262,0-2.345-0.488-3.202-1.452
			c-0.714-0.797-1.095-1.833-1.095-2.999C46.583,56.843,47.036,55.76,47.904,54.903L47.904,54.903z"/>
		<polygon clip-path="url(#SVGID_6_)" fill="#808285" points="56.447,62.307 56.447,53.844 57.709,53.844 61.862,60.248 
			61.803,53.844 63.017,53.844 63.017,62.307 61.839,62.307 57.59,55.713 57.673,62.307 56.447,62.307 		"/>
		<path clip-path="url(#SVGID_6_)" fill="#808285" d="M66.358,60.307c0.584,0.607,1.381,0.952,2.167,0.952
			c1.749,0,3.082-1.405,3.082-3.25c0-0.773-0.286-1.5-0.833-2.095c-0.631-0.678-1.345-1.012-2.249-1.012
			c-0.798,0-1.536,0.31-2.095,0.881c-0.596,0.607-0.929,1.44-0.929,2.25C65.502,58.926,65.811,59.736,66.358,60.307L66.358,60.307z
			 M65.55,54.903c0.809-0.797,1.82-1.226,2.987-1.226c1.189,0,2.201,0.417,3.034,1.238c0.857,0.845,1.298,1.904,1.298,3.106
			c0,1.214-0.381,2.226-1.119,3.023c-0.868,0.94-1.952,1.428-3.225,1.428c-1.263,0-2.345-0.488-3.202-1.452
			c-0.715-0.797-1.096-1.833-1.096-2.999C64.228,56.843,64.681,55.76,65.55,54.903L65.55,54.903z"/>
		<path clip-path="url(#SVGID_6_)" fill="#808285" d="M75.949,58.236c1.678,0,2.512-0.536,2.512-1.666
			c0-1.131-0.738-1.583-2.226-1.583h-0.917v3.249H75.949L75.949,58.236z M74.092,62.307v-8.462h2.44c2.06,0,3.131,0.988,3.131,2.737
			c0,1.357-0.965,2.404-2.405,2.476l2.405,3.25h-1.536l-2.809-3.928v3.928H74.092L74.092,62.307z"/>
		<path clip-path="url(#SVGID_6_)" fill="#808285" d="M81.588,59.867c0.036,0.893,0.571,1.44,1.322,1.44
			c0.844,0,1.392-0.56,1.392-1.44c0-0.94-0.512-1.19-1.439-1.476c-0.607-0.167-1.18-0.262-1.703-0.976
			c-0.285-0.381-0.428-0.809-0.428-1.297c0-1.452,0.939-2.428,2.332-2.428c1.285,0,2.143,0.833,2.226,2.25h-1.143
			c-0.034-0.678-0.499-1.131-1.118-1.131c-0.69,0-1.143,0.524-1.143,1.238c0,0.262,0.083,0.488,0.237,0.679
			c0.357,0.417,0.965,0.44,1.655,0.678c1.106,0.417,1.701,1.226,1.701,2.345c0,1.619-0.999,2.726-2.547,2.726
			c-1.428,0-2.428-1.023-2.451-2.606H81.588L81.588,59.867z"/>
		<path clip-path="url(#SVGID_6_)" fill="#808285" d="M94.142,62.473c-1.261,0-2.344-0.488-3.201-1.452
			c-0.714-0.797-1.095-1.833-1.095-2.999c0-1.179,0.452-2.25,1.32-3.119c0.81-0.797,1.821-1.226,2.988-1.226
			c1.736,0,3.105,0.857,3.772,2.356h-1.44c-0.547-0.75-1.345-1.131-2.345-1.131c-0.798,0-1.534,0.31-2.095,0.881
			c-0.595,0.607-0.929,1.44-0.929,2.25c0,0.893,0.31,1.702,0.857,2.273c0.583,0.607,1.38,0.952,2.166,0.952
			c0.977,0,1.773-0.381,2.273-1.071h1.512C97.188,61.664,95.855,62.473,94.142,62.473L94.142,62.473z"/>
		<path clip-path="url(#SVGID_6_)" fill="#808285" d="M101.041,60.307c0.584,0.607,1.382,0.952,2.167,0.952
			c1.749,0,3.083-1.405,3.083-3.25c0-0.773-0.286-1.5-0.833-2.095c-0.631-0.678-1.346-1.012-2.25-1.012
			c-0.797,0-1.535,0.31-2.095,0.881c-0.595,0.607-0.928,1.44-0.928,2.25C100.186,58.926,100.493,59.736,101.041,60.307
			L101.041,60.307z M100.233,54.903c0.808-0.797,1.82-1.226,2.985-1.226c1.19,0,2.203,0.417,3.036,1.238
			c0.857,0.845,1.297,1.904,1.297,3.106c0,1.214-0.381,2.226-1.117,3.023c-0.869,0.94-1.952,1.428-3.227,1.428
			c-1.262,0-2.345-0.488-3.202-1.452c-0.714-0.797-1.095-1.833-1.095-2.999C98.911,56.843,99.364,55.76,100.233,54.903
			L100.233,54.903z"/>
	</g>
	<polygon fill="#808285" points="108.775,62.307 108.775,53.844 110.001,53.844 110.001,61.14 112.774,61.14 112.774,62.307 
		108.775,62.307 	"/>
	<polygon fill="#808285" points="113.879,62.307 113.879,53.844 115.104,53.844 115.104,61.14 117.878,61.14 117.878,62.307 
		113.879,62.307 	"/>
	<g>
		<defs>
			<rect id="SVGID_7_" y="0" width="156" height="62.472"/>
		</defs>
		<clipPath id="SVGID_8_">
			<use xlink:href="#SVGID_7_"  overflow="visible"/>
		</clipPath>
		<polygon clip-path="url(#SVGID_8_)" fill="#808285" points="118.984,62.307 118.984,53.844 123.376,53.844 123.376,54.975 
			120.209,54.975 120.209,57.498 123.376,57.498 123.376,58.605 120.209,58.605 120.209,61.14 123.376,61.14 123.376,62.307 
			118.984,62.307 		"/>
		<path clip-path="url(#SVGID_8_)" fill="#808285" d="M133.229,58.034c-0.119,2.69-1.916,4.439-4.319,4.439
			c-1.262,0-2.345-0.488-3.202-1.452c-0.714-0.797-1.095-1.833-1.095-2.999c0-1.179,0.451-2.262,1.32-3.119
			c0.821-0.821,1.834-1.226,3.071-1.226c1.726,0,3.059,0.845,3.713,2.309h-1.512c-0.559-0.714-1.345-1.083-2.296-1.083
			c-0.798,0-1.536,0.31-2.096,0.881c-0.596,0.607-0.929,1.44-0.929,2.25c0,0.893,0.31,1.702,0.857,2.273
			c0.584,0.607,1.38,0.952,2.167,0.952c1.272,0,2.273-0.679,2.915-2.036h-3.832v-1.19H133.229L133.229,58.034z"/>
	</g>
	<polygon fill="#808285" points="134.476,62.307 134.476,53.844 138.868,53.844 138.868,54.975 135.701,54.975 135.701,57.498 
		138.868,57.498 138.868,58.605 135.701,58.605 135.701,61.14 138.868,61.14 138.868,62.307 134.476,62.307 	"/>
	<line fill="#BCBEC0" x1="0" y1="47.048" x2="156" y2="47.048"/>
	<g>
		<line fill="none" stroke="#BCBEC0" stroke-width="0.5" x1="0" y1="47.048" x2="156" y2="47.048"/>
	</g>
</g>
</svg>
