<?xml version="1.0" encoding="utf-8"?>
<!-- Generator: Adobe Illustrator 16.0.0, SVG Export Plug-In . SVG Version: 6.00 Build 0)  -->
<!DOCTYPE svg PUBLIC "-//W3C//DTD SVG 1.1//EN" "http://www.w3.org/Graphics/SVG/1.1/DTD/svg11.dtd">
<svg version="1.1" xmlns="http://www.w3.org/2000/svg" xmlns:xlink="http://www.w3.org/1999/xlink" x="0px" y="0px" width="200px"
	 height="200px" viewBox="0 0 200 200" enable-background="new 0 0 200 200" xml:space="preserve">
<g id="Layer_1">
</g>
<g id="Layer_3">
</g>
<g id="Layer_2">
	<g>
		<g>
			<path fill="#FFF9D9" d="M200,187.055c0,7.149-5.872,12.945-13.114,12.945H13.114C5.872,200,0,194.205,0,187.055V12.945
				C0,5.795,5.872,0,13.114,0h173.771C194.128,0,200,5.795,200,12.945V187.055z"/>
		</g>
		<g>
			
				<line fill="none" stroke="#231F20" stroke-width="1.5" stroke-miterlimit="10" x1="67.345" y1="133.635" x2="14.867" y2="185.849"/>
			
				<line fill="none" stroke="#231F20" stroke-width="1.5" stroke-miterlimit="10" x1="183.953" y1="17.607" x2="130.996" y2="70.302"/>
			
				<line fill="none" stroke="#231F20" stroke-width="1.5" stroke-miterlimit="10" x1="132.151" y1="133.89" x2="184.263" y2="186.271"/>
			
				<line fill="none" stroke="#231F20" stroke-width="1.5" stroke-miterlimit="10" x1="15.295" y1="16.452" x2="68.795" y2="70.224"/>
			<circle fill="#231F20" cx="15.294" cy="16.452" r="1.768"/>
			<path fill="#231F20" d="M17.062,185.849c0,0.974-0.791,1.763-1.768,1.763c-0.978,0-1.769-0.79-1.769-1.763
				c0-0.981,0.791-1.768,1.769-1.768C16.271,184.081,17.062,184.868,17.062,185.849z"/>
			<path fill="#231F20" d="M186.031,186.271c0,0.977-0.79,1.764-1.769,1.764c-0.976,0-1.767-0.787-1.767-1.764
				c0-0.98,0.791-1.768,1.767-1.768C185.241,184.503,186.031,185.291,186.031,186.271z"/>
			<path fill="#231F20" d="M186.458,16.872c0,0.976-0.792,1.771-1.769,1.771c-0.976,0-1.768-0.795-1.768-1.771
				c0-0.974,0.792-1.765,1.768-1.765C185.666,15.107,186.458,15.898,186.458,16.872z"/>
			<g>
				<path d="M96.979,65.339v39.056c0,2.497-2.117,4.618-4.612,4.618H81.14c-2.561,0-4.622-2.121-4.622-4.618V65.339h7.491v36.125
					h5.426V65.339H96.979z M77.075,66.336v38.059c0,1,0.38,1.873,1,2.621l1.879-1.935V69.205L77.075,66.336z M80.2,68.581
					l2.684-2.683h-5.366L80.2,68.581z M78.953,107.016l-0.435,0.376c0.495,0.435,1.054,0.749,1.682,0.873L78.953,107.016z
					 M79.324,106.582l1.877,1.807h1.683l-2.684-2.683L79.324,106.582z M83.379,72.64l-2.807-2.811v1.688l2.807,2.868V72.64z
					 M80.572,74.136l2.807,2.807v-1.683l-2.807-2.873V74.136z M80.572,76.695l2.807,2.868v-1.748l-2.807-2.807V76.695z
					 M80.572,79.316l2.807,2.807v-1.688l-2.807-2.868V79.316z M80.572,81.871l2.807,2.873v-1.749l-2.807-2.868V81.871z
					 M80.572,84.491l2.807,2.812v-1.687l-2.807-2.87V84.491z M80.572,87.051l2.807,2.872v-1.748l-2.807-2.869V87.051z M80.572,89.67
					l2.807,2.808v-1.683l-2.807-2.869V89.67z M80.572,92.23l2.807,2.869v-1.744l-2.807-2.873V92.23z M80.572,94.851l2.807,2.807
					v-1.683l-2.807-2.873V94.851z M83.379,98.529l-2.807-2.869v1.749l2.807,2.869V98.529z M82.823,102.274l0.556-0.624v-0.5
					l-2.807-2.869v1.749L82.823,102.274z M81.51,103.585l0.869-0.872l-1.807-1.873v1.75L81.51,103.585z M80.572,103.461v1.058
					l0.497-0.558L80.572,103.461z M81.51,68.147l-0.875,0.872l2.744,2.745v-1.682L81.51,68.147z M80.883,105.52l2.869,2.869h1.752
					l-2.868-2.869H80.883z M89.56,102.089h-5.736l-2.816,2.868h11.421L89.56,102.089z M82.823,66.898l-0.878,0.873l1.434,1.434
					V67.46L82.823,66.898z M83.379,66.65v-0.375l-0.124,0.185L83.379,66.65z M83.504,105.52l2.868,2.869h1.69l-2.808-2.869H83.504z
					 M86.062,105.52l2.869,2.869h1.752l-2.869-2.869H86.062z M91.553,108.389h0.814c0.246,0,0.558-0.062,0.812-0.062l-2.752-2.807
					h-1.743L91.553,108.389z M90.056,101.713l2.869,2.872v-35.38l-2.869-2.869V101.713z M93.179,68.581l2.684-2.683h-5.365
					L93.179,68.581z M92.988,105.52h-1.746l2.56,2.559c0.433-0.124,0.812-0.377,1.123-0.624L92.988,105.52z M93.489,71.516
					l2.87,2.868V72.64l-2.87-2.811V71.516z M93.489,74.136l2.87,2.807v-1.683l-2.87-2.873V74.136z M93.489,76.695l2.87,2.868v-1.748
					l-2.87-2.807V76.695z M93.489,79.316l2.87,2.807v-1.688l-2.87-2.868V79.316z M93.489,81.871l2.87,2.873v-1.749l-2.87-2.868
					V81.871z M93.489,84.491l2.87,2.812v-1.687l-2.87-2.87V84.491z M93.489,87.051l2.87,2.872v-1.748l-2.87-2.869V87.051z
					 M93.489,89.67l2.87,2.808v-1.683l-2.87-2.869V89.67z M93.489,92.23l2.87,2.869v-1.744l-2.87-2.873V92.23z M93.489,94.851
					l2.87,2.807v-1.683l-2.87-2.873V94.851z M93.489,97.409l2.87,2.869v-1.749l-2.87-2.869V97.409z M93.489,100.03l2.87,2.807
					v-1.687l-2.87-2.869V100.03z M93.489,100.84v1.75l2.745,2.745c0.062-0.314,0.125-0.625,0.125-0.939v-0.686L93.489,100.84z
					 M95.358,107.016c0.249-0.31,0.504-0.686,0.69-1.059l-2.56-2.496v1.748L95.358,107.016z M93.614,69.019l2.745,2.807v-1.744
					l-1.869-1.935L93.614,69.019z M95.731,66.898l-0.869,0.873l1.497,1.434V67.46L95.731,66.898z M96.359,66.65v-0.375l-0.187,0.185
					L96.359,66.65z"/>
				<path d="M121.939,65.339v43.674h-7.553V90.857h-5.427v18.156h-7.49V65.339h7.49v18.031h5.427V65.339H121.939z M104.903,69.205
					l-2.869-2.869v41.618l2.869-2.873V69.205z M105.151,68.581l2.745-2.683h-5.427L105.151,68.581z M102.593,108.265l-0.123,0.124
					h0.187L102.593,108.265z M103.027,107.892l0.504,0.497h1.744l-1.372-1.373L103.027,107.892z M104.275,106.582l1.877,1.807h1.683
					l-2.684-2.683L104.275,106.582z M108.331,72.64l-2.805-2.873v1.75l2.805,2.868V72.64z M105.526,74.136l2.805,2.807v-1.683
					l-2.805-2.873V74.136z M105.526,76.695l2.805,2.868v-1.748l-2.805-2.87V76.695z M105.526,77.567v1.749l2.805,2.807v-1.688
					L105.526,77.567z M107.772,84.119l0.559-0.562v-0.563l-2.805-2.868v1.744L107.772,84.119z M106.462,85.43l0.877-0.876
					l-1.812-1.807v1.745L106.462,85.43z M105.526,85.306v1.058l0.502-0.5L105.526,85.306z M108.331,92.478v-1.683l-2.805-2.869
					v1.744L108.331,92.478z M105.526,92.23l2.805,2.869v-1.744l-2.805-2.873V92.23z M105.526,94.851l2.805,2.807v-1.683
					l-2.805-2.873V94.851z M105.526,97.409l2.805,2.869v-1.749l-2.805-2.869V97.409z M105.526,100.03l2.805,2.807v-1.687
					l-2.805-2.869V100.03z M105.526,100.84v1.75l2.805,2.868v-1.748L105.526,100.84z M105.526,105.209l2.805,2.807v-1.749
					l-2.805-2.806V105.209z M106.462,68.147l-0.875,0.872l2.744,2.745v-1.682L106.462,68.147z M108.711,90.295h1.746l-2.869-2.869
					h-1.684L108.711,90.295z M114.511,83.995h-5.738l-2.807,2.808h11.414L114.511,83.995z M107.772,66.898l-0.876,0.873l1.435,1.434
					V67.46L107.772,66.898z M108.208,66.459l0.123,0.125v-0.31L108.208,66.459z M110.207,87.426h-1.743l2.868,2.869h1.683
					L110.207,87.426z M113.891,90.295h0.744l0.442-0.562l-2.311-2.307h-1.753L113.891,90.295z M115.386,87.426h-1.751l1.877,1.872
					l0.868-0.876L115.386,87.426z M115.007,66.336v17.282l2.876,2.869V69.205L115.007,66.336z M115.007,90.671v17.284l2.876-2.873
					V87.86L115.007,90.671z M118.132,68.581l2.684-2.683h-5.366L118.132,68.581z M115.512,108.265l-0.062,0.124h0.187
					L115.512,108.265z M115.945,107.892l0.566,0.497h1.682l-1.372-1.373L115.945,107.892z M116.821,88.051l0.621-0.625h-1.25
					L116.821,88.051z M117.257,106.582l1.813,1.807h1.745l-2.684-2.683L117.257,106.582z M118.442,71.516l2.869,2.868V72.64
					l-2.869-2.873V71.516z M118.442,74.136l2.869,2.807v-1.683l-2.869-2.873V74.136z M118.442,76.695l2.869,2.868v-1.748
					l-2.869-2.87V76.695z M118.442,79.316l2.869,2.807v-1.688l-2.869-2.868V79.316z M118.442,81.871l2.869,2.873v-1.749
					l-2.869-2.868V81.871z M118.442,84.491l2.869,2.812v-1.687l-2.869-2.87V84.491z M118.442,87.051l2.869,2.872v-1.748
					l-2.869-2.869V87.051z M118.442,89.67l2.869,2.808v-1.683l-2.869-2.869V89.67z M118.442,92.23l2.869,2.869v-1.744l-2.869-2.873
					V92.23z M118.442,94.851l2.869,2.807v-1.683l-2.869-2.873V94.851z M118.442,97.409l2.869,2.869v-1.749l-2.869-2.869V97.409z
					 M118.442,100.03l2.869,2.807v-1.687l-2.869-2.869V100.03z M118.442,102.589l2.869,2.868v-1.748l-2.869-2.869V102.589z
					 M118.442,105.209l2.869,2.807v-1.749l-2.869-2.806V105.209z M118.565,69.019l2.746,2.745v-1.682l-1.87-1.935L118.565,69.019z
					 M119.814,67.708l1.497,1.497V67.46l-0.62-0.562L119.814,67.708z M121.126,66.459l0.186,0.125v-0.31L121.126,66.459z"/>
			</g>
			<g>
				<path fill="#231F20" d="M81.163,116.087c0.728,0,1.355,0.605,1.355,1.354v4.811c0,0.732-0.628,1.353-1.355,1.353h-3.297
					c-0.744,0-1.349-0.62-1.349-1.353v-2.632l2.194-0.516v2.288h1.589v-3.11h-2.435c-0.744,0-1.349-0.604-1.349-1.352v-4.777
					c0-0.748,0.604-1.353,1.349-1.353h3.297c0.728,0,1.355,0.605,1.355,1.353v2.598l-2.218,0.511v-2.268h-1.589v3.093H81.163z"/>
				<path fill="#231F20" d="M89.838,110.8v11.453c0,0.732-0.627,1.353-1.356,1.353h-3.294c-0.745,0-1.351-0.62-1.351-1.353V110.8
					h2.196v10.592h1.589V110.8H89.838z"/>
				<path fill="#231F20" d="M97.042,110.8h2.179v12.805h-2.194v-6.292l-0.877,3.257h-2.139l-0.861-3.257v6.292h-2.193V110.8h2.17
					l1.962,6.184L97.042,110.8z"/>
				<path fill="#231F20" d="M106.415,110.8h2.179v12.805h-2.202v-6.292l-0.875,3.257h-2.14l-0.862-3.257v6.292h-2.192V110.8h2.179
					l1.953,6.184L106.415,110.8z"/>
				<path fill="#231F20" d="M115.688,121.392v2.213h-6.001V110.8h6.001v2.194h-3.798v3.093h3.032v2.194h-3.032v3.11H115.688z"/>
				<path fill="#231F20" d="M120.505,123.605l-0.892-5.323h-0.845v5.323h-2.196V110.8h4.646c0.736,0,1.332,0.605,1.332,1.353v4.795
					c0,0.512-0.286,0.984-0.766,1.206l0.913,5.451H120.505z M120.357,112.994h-1.589v3.093h1.589V112.994z"/>
				<path fill="#231F20" d="M81.829,124.943c0.736,0,1.356,0.601,1.356,1.353v10.1c0,0.728-0.62,1.353-1.356,1.353h-3.286
					c-0.754,0-1.358-0.625-1.358-1.353v-10.1c0-0.751,0.604-1.353,1.358-1.353H81.829z M80.968,127.137h-1.589v8.397h1.589V127.137z
					"/>
				<path fill="#231F20" d="M90.505,127.137h-3.806v3.09h3.037v2.197h-3.037v5.323h-2.195v-12.805h6.001V127.137z"/>
				<path fill="#231F20" d="M100.531,126.789v2.05v8.909h-2.21v-3.807h-1.599v3.807H94.53v-11.453c0-0.751,0.604-1.353,1.356-1.353
					h3.287c0.737,0,1.357,0.601,1.357,1.353V126.789z M98.321,127.137h-1.599v4.609h1.599V127.137z"/>
				<path fill="#231F20" d="M107.851,131.068c0,0.752-0.621,1.356-1.357,1.356h-2.449v5.323h-2.196v-12.805h4.646
					c0.736,0,1.357,0.601,1.357,1.353V131.068z M105.641,127.137h-1.597v3.09h1.597V127.137z"/>
				<path fill="#231F20" d="M114.736,131.068c0,0.752-0.629,1.356-1.356,1.356h-2.452v5.323h-2.193v-12.805h4.646
					c0.728,0,1.356,0.601,1.356,1.353V131.068z M112.518,127.137h-1.59v3.09h1.59V127.137z"/>
				<path fill="#231F20" d="M120.256,130.228c0.737,0,1.357,0.604,1.357,1.356v4.812c0,0.728-0.62,1.353-1.357,1.353h-3.287
					c-0.753,0-1.356-0.625-1.356-1.353v-2.637l2.192-0.511v2.287h1.59v-3.11h-2.426c-0.753,0-1.356-0.604-1.356-1.356v-4.773
					c0-0.751,0.604-1.353,1.356-1.353h3.287c0.737,0,1.357,0.601,1.357,1.353v2.598l-2.219,0.512v-2.268h-1.59v3.09H120.256z"/>
			</g>
			<g>
				<polygon fill="none" stroke="#231F20" stroke-width="1.5" stroke-linejoin="round" stroke-miterlimit="10" points="
					46.431,108.904 54.72,108.904 54.72,87.539 11.065,87.539 11.065,108.904 35.513,108.904 46.05,115.754 				"/>
			</g>
			<path fill="none" stroke="#231F20" stroke-width="1.5" stroke-miterlimit="10" d="M171.423,77.001"/>
			<g>
				<polyline fill="none" stroke="#231F20" stroke-width="1.5" stroke-linejoin="round" stroke-miterlimit="10" points="
					82.364,41.595 84.038,43.335 109.938,30.692 112.208,22.046 117.597,16.363 				"/>
				<path fill="none" stroke="#231F20" stroke-width="1.5" stroke-linejoin="round" stroke-miterlimit="10" d="M120.179,17.352"/>
				
					<line fill="none" stroke="#231F20" stroke-width="1.5" stroke-linejoin="round" stroke-miterlimit="10" x1="82.146" y1="41.45" x2="83.891" y2="43.122"/>
				<path fill="none" stroke="#231F20" stroke-width="1.5" stroke-linejoin="round" stroke-miterlimit="10" d="M108.13,5.306"/>
				
					<line fill="none" stroke="#231F20" stroke-width="1.5" stroke-linejoin="round" stroke-miterlimit="10" x1="119.187" y1="18.604" x2="106.959" y2="6.376"/>
				
					<line fill="none" stroke="#231F20" stroke-width="1.5" stroke-linejoin="round" stroke-miterlimit="10" x1="83.115" y1="42.373" x2="98.235" y2="27.246"/>
				<path fill="#231F20" stroke="#231F20" stroke-width="1.5" stroke-linejoin="round" stroke-miterlimit="10" d="M97.079,26.09
					c-0.643,0.639-0.643,1.674,0,2.314c0.644,0.64,1.678,0.643,2.319,0c0.636-0.64,0.636-1.675,0-2.314
					C98.757,25.45,97.716,25.45,97.079,26.09z"/>
				<polyline fill="none" stroke="#231F20" stroke-width="1.5" stroke-linejoin="round" stroke-miterlimit="10" points="
					83.891,43.122 82.146,41.45 94.793,15.553 103.438,13.278 109.131,7.888 				"/>
			</g>
			<polygon fill="none" stroke="#231F20" stroke-width="1.5" stroke-linejoin="round" stroke-miterlimit="10" points="
				114.387,172.303 111.999,170.741 103.748,170.403 102.524,169.492 104.836,164.123 103.223,157.667 100.353,158.466 
				99.725,162.192 92.079,170.919 89.964,173.156 84.312,174.462 85.69,187.767 91.963,187.496 101.748,190.943 110.58,190.09 
				111.493,187.423 109.938,186.508 111.635,186.089 112.689,182.875 111.178,181.677 113.177,180.944 113.727,177.494 
				112.092,176.416 114.069,175.493 			"/>
			<polyline fill="none" stroke="#231F20" stroke-width="1.5" stroke-miterlimit="10" points="162.568,80.378 157.057,80.378 
				157.057,98.588 155.234,100.86 157.057,103.135 157.057,116.859 162.568,116.859 			"/>
			<polyline fill="none" stroke="#231F20" stroke-width="1.5" stroke-miterlimit="10" points="178.617,116.859 184.142,116.859 
				184.142,103.194 185.954,100.917 184.142,98.642 184.142,80.378 178.617,80.378 			"/>
		</g>
	</g>
</g>
</svg>
