<?xml version="1.0" encoding="utf-8"?>
<!-- Generator: Adobe Illustrator 16.0.0, SVG Export Plug-In . SVG Version: 6.00 Build 0)  -->
<!DOCTYPE svg PUBLIC "-//W3C//DTD SVG 1.1//EN" "http://www.w3.org/Graphics/SVG/1.1/DTD/svg11.dtd">
<svg version="1.1" id="Layer_1" xmlns="http://www.w3.org/2000/svg" xmlns:xlink="http://www.w3.org/1999/xlink" x="0px" y="0px"
	 width="200px" height="200px" viewBox="0 0 200 200" enable-background="new 0 0 200 200" xml:space="preserve">
<g>
	<path fill="#E51937" d="M200,186.977c0,7.149-5.872,12.945-13.114,12.945H13.114C5.872,199.922,0,194.126,0,186.977V12.867
		C0,5.717,5.872-0.078,13.114-0.078h173.771c7.242,0,13.114,5.795,13.114,12.945V186.977z"/>
</g>
<g>
	<polygon fill-rule="evenodd" clip-rule="evenodd" fill="#E31837" points="73.342,115.937 73.342,156.492 67.268,156.492 
		67.268,174.982 99.24,174.982 99.24,156.491 93.541,156.491 93.541,115.986 73.342,115.937 	"/>
	<path fill="#FFFFFF" d="M93.104,156.055v0.874h0.874h4.825v17.617H67.704v-17.616h5.201h0.874v-0.874v-36.629
		c-0.291,0.002-0.583,0.007-0.874,0.011v36.618h-6.074v19.364h32.846v-19.365h-5.699v-36.597c-0.292,0.018-0.582,0.032-0.874,0.046
		V156.055L93.104,156.055z"/>
	<path fill-rule="evenodd" clip-rule="evenodd" fill="#FFFFFF" d="M74.966,158.158l-6.038,0.031v15.127l8.463-7.659h6.021
		L83.41,117.82c-2.801-0.06-5.604-0.142-8.429-0.145L74.966,158.158L74.966,158.158z"/>
	<polygon fill-rule="evenodd" clip-rule="evenodd" fill="#FFFFFF" points="83.411,165.657 89.19,165.657 97.577,158.157 
		91.917,158.157 83.411,165.657 	"/>
	<polygon fill-rule="evenodd" clip-rule="evenodd" fill="#E31837" points="52.102,143.439 38.212,130.495 38.212,43.63 
		32.854,43.63 32.854,24.862 65.795,24.862 65.795,43.63 60.424,43.63 60.424,120.823 62.363,122.431 104.142,122.431 
		106.081,120.823 106.081,43.63 100.709,43.63 100.709,24.862 133.65,24.862 133.65,43.63 128.293,43.63 128.293,130.495 
		114.402,143.439 52.102,143.439 	"/>
	<path fill="#FFFFFF" d="M134.087,24.425h-33.815v19.642h5.373v76.551l-1.66,1.376H62.521l-1.659-1.376V44.066h5.371V24.425H32.417
		v19.642h5.357v86.619l14.155,13.191h62.646l14.154-13.191V44.066h5.357V24.425L134.087,24.425L134.087,24.425z M133.213,25.298
		v17.895h-4.483h-0.874v0.874v86.238l-13.625,12.698H52.273l-13.625-12.698V44.066v-0.874h-0.874h-4.483V25.298h32.067v17.895
		h-4.497h-0.874v0.874v76.551v0.411l0.316,0.262l1.659,1.376l0.242,0.201h0.315h41.464h0.314l0.243-0.201l1.66-1.376l0.316-0.262
		v-0.411V44.066v-0.874h-0.874h-4.499V25.298H133.213"/>
	<polygon fill-rule="evenodd" clip-rule="evenodd" fill="#FFFFFF" points="107.768,121.583 104.749,124.1 61.79,124.1 
		57.129,132.963 108.982,132.963 117.172,125.753 117.172,34.176 107.736,42.019 107.768,121.583 	"/>
	<polygon fill-rule="evenodd" clip-rule="evenodd" fill="#FFFFFF" points="102.39,26.547 102.358,41.988 110.696,34.17 
		123.649,34.176 132.015,26.516 102.39,26.547 	"/>
	<polygon fill-rule="evenodd" clip-rule="evenodd" fill="#FFFFFF" points="34.541,26.502 34.493,41.987 42.853,34.17 55.807,34.176 
		64.148,26.515 34.541,26.502 	"/>
	<polygon fill-rule="evenodd" clip-rule="evenodd" fill="#FFFFFF" points="39.902,129.791 49.328,126.011 49.328,34.176 
		39.902,42.019 39.902,129.791 	"/>
	<rect x="150.983" y="104.426" fill-rule="evenodd" clip-rule="evenodd" fill="#FFFFFF" width="0" height="0.001"/>
	<polygon fill-rule="evenodd" clip-rule="evenodd" fill="#E31837" points="167.146,77.509 167.146,58.463 135.172,58.463 
		135.172,77.508 140.867,77.508 140.868,95.261 93.541,95.261 93.542,77.508 99.241,77.508 99.241,58.463 67.268,58.463 
		67.268,77.509 73.342,77.509 73.342,120.481 93.541,120.53 93.541,113.584 140.867,113.584 140.867,156.491 135.172,156.491 
		135.172,174.982 167.146,174.982 167.146,156.492 161.071,156.492 161.071,77.509 167.146,77.509 	"/>
	<polygon fill="#FFFFFF" points="167.582,77.946 167.582,58.026 134.735,58.026 134.735,77.945 140.431,77.945 140.431,94.824 
		93.978,94.824 93.979,77.945 99.678,77.945 99.678,58.026 66.831,58.026 66.831,77.946 72.905,77.946 72.905,121.186 
		73.779,121.174 73.779,77.946 73.779,77.072 72.905,77.072 67.704,77.072 67.704,58.9 98.804,58.9 98.804,77.071 93.979,77.071 
		93.104,77.071 93.104,77.945 93.104,94.824 93.104,95.698 93.978,95.698 140.431,95.698 141.305,95.698 141.305,94.824 
		141.304,77.945 141.304,77.071 140.431,77.071 135.609,77.071 135.609,58.9 166.708,58.9 166.708,77.072 161.509,77.072 
		160.635,77.072 160.635,77.946 160.635,156.056 160.635,156.929 161.509,156.929 166.708,156.929 166.708,174.545 135.609,174.545 
		135.609,156.928 140.431,156.928 141.304,156.928 141.304,156.055 141.304,114.021 141.304,113.147 140.431,113.147 
		93.978,113.147 93.104,113.147 93.104,114.021 93.104,121.252 93.978,121.206 93.978,114.021 140.431,114.021 140.431,156.055 
		134.735,156.055 134.735,175.419 167.582,175.419 167.582,156.056 161.509,156.056 161.509,77.946 167.582,77.946 	"/>
	<polygon fill-rule="evenodd" clip-rule="evenodd" fill="#FFFFFF" points="165.506,60.102 136.825,60.102 136.825,75.857 
		145.172,68.003 150.981,68.003 157.118,68.003 165.506,60.102 	"/>
	<polygon fill-rule="evenodd" clip-rule="evenodd" fill="#FFFFFF" points="142.518,75.889 142.549,96.928 91.917,96.896 
		83.411,104.426 150.982,104.426 150.981,68.003 142.518,75.889 	"/>
	<polygon fill-rule="evenodd" clip-rule="evenodd" fill="#FFFFFF" points="150.982,104.427 142.517,111.96 142.548,158.157 
		136.856,158.189 136.824,173.347 145.215,165.657 150.983,165.657 150.982,104.427 	"/>
	<polygon fill-rule="evenodd" clip-rule="evenodd" fill="#FFFFFF" points="97.609,60.07 68.96,60.133 68.96,75.826 77.348,68.003 
		83.41,68.003 89.193,68.003 97.609,60.07 	"/>
	<polygon fill-rule="evenodd" clip-rule="evenodd" fill="#FFFFFF" points="74.998,75.889 74.981,121.171 83.41,121.315 
		83.41,68.003 74.998,75.889 	"/>
	<polygon fill-rule="evenodd" clip-rule="evenodd" fill="#FFFFFF" points="159.436,158.157 150.983,165.657 157.371,165.657 
		165.536,158.157 159.436,158.157 	"/>
</g>
</svg>
