<?xml version="1.0" encoding="utf-8"?>
<!-- Generator: Adobe Illustrator 17.1.0, SVG Export Plug-In . SVG Version: 6.00 Build 0)  -->
<!DOCTYPE svg PUBLIC "-//W3C//DTD SVG 1.1//EN" "http://www.w3.org/Graphics/SVG/1.1/DTD/svg11.dtd">
<svg version="1.1" id="Layer_1" xmlns="http://www.w3.org/2000/svg" xmlns:xlink="http://www.w3.org/1999/xlink" x="0px" y="0px"
	 viewBox="0 0 89 66.7" enable-background="new 0 0 89 66.7" xml:space="preserve">
<g>
	<g>
		<circle fill="#FFFFFF" cx="68.4" cy="13.9" r="10.6"/>
		<g>
			<path fill="#FFFFFF" d="M85.5,42.2c0-9.4-7.7-17-17.1-17s-17.1,7.5-17.1,16.9c0,0.6,0,1.5,0.1,1.5h34
				C85.4,43.7,85.5,42.8,85.5,42.2z"/>
		</g>
	</g>
	<g>
		<circle fill="#FFFFFF" cx="21.4" cy="13.9" r="10.6"/>
		<g>
			<path fill="#FFFFFF" d="M38.5,42.2c0-9.4-7.7-17-17.1-17S4.4,32.7,4.4,42.1c0,0.6,0,1.5,0.1,1.5h34
				C38.5,43.7,38.5,42.8,38.5,42.2z"/>
		</g>
	</g>
	<g>
		<path fill="#FFFFFF" d="M54.6,13.3C65.5,27.6,49.3,43.8,35,32.9C24.1,18.6,40.3,2.4,54.6,13.3z"/>
		<g>
			<path fill="#FFFFFF" d="M66.3,59.8c0-11.9-9.6-21.9-21.6-21.9S23.2,48.1,23.2,60c0,0.7,0,0.3,0.1,2.7h42.9
				C66.3,60.3,66.3,60.5,66.3,59.8z"/>
		</g>
	</g>
</g>
</svg>
